<?xml version="1.0" encoding="utf-8"?>
<svg viewBox="0 0 500 500" xmlns="http://www.w3.org/2000/svg">
  <g transform="matrix(0.490824, 0, 0, 0.490824, 9.957741, 5.545473)" style="">
    <g>
      <path d="M674.3,166.5c37.5,52.7,53.8,116.9,45.6,182.7c-1.7,13.8,15.2,16,22.6,17c3.3,0.4,6.4,0.6,8.9,0.6c13.6,0,16.5-7.2,17.3-13.6c9.4-75.9-9.9-152.3-54.5-215.1c-23.7-33.2-53.2-60.9-87.6-82.2C578.3,25.9,522.7,10,465.9,10c-75.7,0-148.3,27.8-204.3,78.3c-2.6,2.3-7.6,2.7-10.1,0.8l-20.7-16c-9.4-7.2-20-6.8-26,0c-2.6,2.9-5.4,8.4-4.2,17.3l8.5,66.3c1.8,14.3,14,25,28.4,25l69.9-8.8c13.4-1.6,17-9.8,17.9-13.2c0.9-3.4,1.9-12.2-8.7-20.4l-18.7-14.5l-0.5-3.1C344,81.2,403.8,58.9,465.8,58.9c47.7,0,94.4,13.3,135,38.5C629.8,115.4,654.6,138.7,674.3,166.5z" style="fill: rgb(57, 68, 247);"/>
      <path d="M944.8,886.3V554.5c0-27.3-22.1-49.3-49.4-49.3H515.1v66.6h334.7c7.5,0,13.6,6.1,13.6,13.6v270.1c0,7.5-6.1,13.6-13.6,13.6H515.1v66.6h380.3C922.7,935.6,944.8,913.5,944.8,886.3z" style="fill: rgb(57, 68, 247);"/>
      <path d="M104.5,990h331.8c27.2,0,49.3-22.1,49.3-49.4V307.7c0-27.3-22.1-49.4-49.3-49.4H104.5c-27.3,0-49.3,22.1-49.3,49.4v632.9C55.2,967.9,77.3,990,104.5,990z M269.6,959.9c-17.2,0-31.1-13.9-31.1-31.1c0-17.2,13.9-31.1,31.1-31.1c17.1,0,31.1,13.9,31.1,31.1C300.7,946,286.8,959.9,269.6,959.9z M121.8,353.3c0-7.5,6.1-13.6,13.6-13.6h270.1c7.5,0,13.6,6.1,13.6,13.6v487.3c0,7.5-6.1,13.6-13.6,13.6H135.4c-7.5,0-13.6-6.1-13.6-13.6L121.8,353.3L121.8,353.3z" style="fill: rgb(26, 142, 253);"/>
    </g>
    <g/>
    <g/>
    <g/>
    <g/>
    <g/>
    <g/>
    <g/>
    <g/>
    <g/>
    <g/>
    <g/>
    <g/>
    <g/>
    <g/>
    <g/>
  </g>
</svg>