<svg xmlns="http://www.w3.org/2000/svg" viewBox="0 0 247.038 247.038" xmlns:v="https://vecta.io/nano"><path d="M104.564 63.636l-32.09-18.528c-1.289-.746-2.877-.734-4.158.024L35.801 64.393a4.12 4.12 0 0 0-1.444 5.641c.768 1.297 2.139 2.019 3.547 2.019a4.1 4.1 0 0 0 2.095-.575l30.443-18.033 30.005 17.324c1.968 1.134 4.485.458 5.625-1.508a4.12 4.12 0 0 0-1.508-5.625z" fill="#f0f8ff"/><path d="M232.587 52.017l-51.789-29.901c.229-1.162.363-2.36.363-3.589C181.16 8.311 172.85 0 162.633 0s-18.528 8.311-18.528 18.528 8.311 18.528 18.528 18.528c6.03 0 11.344-2.939 14.73-7.413L226.41 57.96v57.007l-49.367 28.502-49.368-28.502V55.584c0-1.423-.766-2.614-1.863-3.354-.096-.067-.174-.153-.276-.212l-.27-.156c-.048-.021-.085-.057-.133-.077L72.051 21.137c-1.275-.736-2.843-.736-4.117 0l-53.485 30.88c-1.275.736-2.059 2.095-2.059 3.566v61.76c0 1.472.784 2.831 2.059 3.566l51.466 29.715v61.417c0 1.472.784 2.831 2.059 3.566l53.485 30.88a4.11 4.11 0 0 0 4.118 0l49.726-28.71c3.247 2.801 7.419 4.557 12.034 4.557 10.217 0 18.528-8.311 18.528-18.528s-8.311-18.528-18.528-18.528-18.528 8.311-18.528 18.528c0 2.605.552 5.079 1.526 7.33l-46.816 27.03-49.367-28.501v-59.087l49.367-28.503 51.466 29.715a4.11 4.11 0 0 0 2.059.551c.711 0 1.421-.183 2.059-.551l53.485-30.88c1.275-.736 2.059-2.095 2.059-3.566v-61.76a4.13 4.13 0 0 0-2.06-3.567zm-69.954-23.196a10.31 10.31 0 0 1-10.293-10.293 10.31 10.31 0 0 1 10.293-10.293 10.31 10.31 0 0 1 10.293 10.293 10.31 10.31 0 0 1-10.293 10.293zm24.703 164.692a10.31 10.31 0 0 1 10.293 10.293 10.31 10.31 0 0 1-10.293 10.293c-2.371 0-4.53-.838-6.272-2.191-.02-.658-.143-1.316-.495-1.926-.584-1.008-1.533-1.665-2.582-1.926-.594-1.299-.945-2.731-.945-4.25a10.31 10.31 0 0 1 10.294-10.293zM69.993 143.469l-49.368-28.502V57.96l49.367-28.502L119.36 57.96l.001 57.007-49.368 28.502z" fill="#f3f9fe"/></svg>