<svg xmlns="http://www.w3.org/2000/svg" viewBox="0 0 297 297" xmlns:v="https://vecta.io/nano"><path d="M150.3 203.8c0-32.4 26.3-58.7 58.7-58.7 6.5 0 12.8 1.1 18.7 3.1l4.9-58.6H47.2l14.5 174.2c1.6 18.6 17.4 33.2 36.1 33.2h84.1c18.7 0 34.6-14.6 36.1-33.2l.2-2.1c-3 .5-6.1.7-9.2.7-32.3 0-58.7-26.3-58.7-58.6z" fill="#1a8efd"/><path d="M209 158.7c-24.8 0-45 20.2-45 45s20.2 45 45 45 45-20.2 45-45-20.2-45-45-45zm22.1 57.5c2.7 2.7 2.7 7 0 9.6a6.91 6.91 0 0 1-4.8 2 6.91 6.91 0 0 1-4.8-2L209 213.4l-12.5 12.5a6.91 6.91 0 0 1-4.8 2 6.91 6.91 0 0 1-4.8-2c-2.7-2.7-2.7-7 0-9.6l12.5-12.5-12.5-12.5c-2.7-2.7-2.7-7 0-9.6 2.7-2.7 7-2.7 9.6 0l12.5 12.5 12.5-12.5c2.7-2.7 7-2.7 9.6 0 2.7 2.7 2.7 7 0 9.6l-12.5 12.5 12.5 12.4z" fill="#ea0707"/><path d="M112.1 26.1c0-6.9 5.6-12.5 12.5-12.5h30.6c6.9 0 12.5 5.6 12.5 12.5v8.5h13.6v-8.5c0-14.4-11.7-26.1-26.1-26.1h-30.6c-14.4 0-26.1 11.7-26.1 26.1v8.5h13.6v-8.5z" fill="#1a8efd"/><path d="M236.8 63.6a15.41 15.41 0 0 0-15.4-15.4h-163A15.41 15.41 0 0 0 43 63.6V76h193.8V63.6h0z" fill="#005cb2"/></svg>