<svg xmlns="http://www.w3.org/2000/svg" viewBox="0 0 512 512" fill="#fff" xmlns:v="https://vecta.io/nano"><path d="M480.6 341.4a20.36 20.36 0 0 0-20.4 20.4v98.4H51.8v-98.4a20.36 20.36 0 0 0-20.4-20.4A20.36 20.36 0 0 0 11 361.8v118.8A20.36 20.36 0 0 0 31.4 501h449.2a20.36 20.36 0 0 0 20.4-20.4V361.8a20.36 20.36 0 0 0-20.4-20.4zM241 365.6c11.5 11.6 25.6 5.2 29.9 0l117.3-126.2c7.7-8.3 7.2-21.2-1.1-28.9s-21.2-7.2-28.8 1.1l-81.9 88.1V34.5a20.4 20.4 0 1 0-40.8 0v265.3l-81.9-88.1c-7.7-8.3-20.6-8.7-28.9-1.1-8.3 7.7-8.7 20.6-1.1 28.9L241 365.6z"/></svg>