<svg xmlns="http://www.w3.org/2000/svg" viewBox="0 0 500 500" xmlns:v="https://vecta.io/nano"><path d="M462.487 5.797H37.513c-12.554 0-22.766 10.213-22.766 22.766v36.595a30.23 30.23 0 0 0 8.115 20.654l177.552 199.385a15.11 15.11 0 0 1 4.053 10.324v123.4a30.38 30.38 0 0 0 12.947 24.864l66.18 46.326c1.297.912 2.824 1.371 4.35 1.371a7.54 7.54 0 0 0 3.505-.859c2.512-1.304 4.084-3.898 4.084-6.729V295.521c0-3.847 1.438-7.507 4.053-10.324L477.138 85.813a30.23 30.23 0 0 0 8.115-20.654V28.563c0-12.554-10.213-22.766-22.766-22.766z" fill="rgba(26, 143, 253, 0.44)"/><path d="M14.873 66.507c.32 7.191 3.067 14.015 7.988 19.306l177.552 199.385c.401.432.72.916 1.065 1.386h97.044c.344-.47.664-.954 1.065-1.386L477.138 85.813c4.921-5.291 7.668-12.115 7.988-19.306H14.873z" fill="#1a8efd"/><path d="M250 5.797H37.513c-12.554 0-22.766 10.213-22.766 22.766v36.595a30.23 30.23 0 0 0 8.115 20.654l177.552 199.385a15.11 15.11 0 0 1 4.053 10.324v123.4a30.38 30.38 0 0 0 12.947 24.864L250 466.594V5.797z" fill="#3ea2ff"/><path d="M250 286.583V66.507H14.873c.158 3.578.924 7.063 2.253 10.316.11.265.27.506.388.767.593 1.339 1.237 2.659 2.024 3.903.975 1.522 2.073 2.976 3.323 4.32l177.552 199.385c.401.432.72.916 1.065 1.386H250zm0-258.02H18.541c-6.286 0-11.383-5.097-11.383-11.383h0c0-6.286 5.097-11.383 11.383-11.383H250v22.766z" fill="#3944f7"/><path d="M481.459 28.563H250V5.797h231.459c6.286 0 11.383 5.097 11.383 11.383h0c0 6.286-5.097 11.383-11.383 11.383z" fill="#1a8efd"/></svg>