<svg xmlns="http://www.w3.org/2000/svg" viewBox="0 0 433.521 433.521" xmlns:v="https://vecta.io/nano"><path d="M269.568 250.041a7 7 0 1 1 0 14H209.34a7 7 0 1 1 0-14h60.228zm38.856-24.547a7 7 0 0 0-7-7H209.34a7 7 0 1 0 0 14h92.084a7 7 0 0 0 7-7zM157.206 65.186V34.173a7 7 0 0 1 7-7l25.395-.015C189.601 12.184 201.784 0 216.76 0s27.161 12.184 27.161 27.158v.015h25.393a7 7 0 0 1 7 7v31.013a7 7 0 0 1-7 7H164.206a7 7 0 0 1-7-7zm14-7h91.107V41.173H236.92a7 7 0 0 1-7-7v-7.015c0-7.256-5.903-13.158-13.159-13.158S203.6 19.902 203.6 27.158v7.015a7 7 0 0 1-7 7h-25.395v17.013zm212.387-7.181v365.651c0 9.3-7.565 16.865-16.865 16.865H66.793c-9.299 0-16.864-7.565-16.864-16.865V51.005c0-9.3 7.565-16.865 16.864-16.865h67.815a7 7 0 1 1 0 14H95.517v337.661h242.487V48.14h-39.092a7 7 0 1 1 0-14h67.815c9.3 0 16.866 7.565 16.866 16.865zm-14 0c0-1.553-1.313-2.865-2.865-2.865h-14.724v344.661a7 7 0 0 1-7 7H88.517a7 7 0 0 1-7-7V48.14H66.793c-1.553 0-2.864 1.313-2.864 2.865v365.651c0 1.553 1.312 2.865 2.864 2.865h299.935c1.553 0 2.865-1.313 2.865-2.865V51.005zm-240.899 77.317a7 7 0 0 0-2.717 9.52l12.862 23.137a7 7 0 0 0 12.236 0l22.422-40.331a7 7 0 0 0-2.717-9.52c-3.377-1.877-7.641-.663-9.52 2.717l-16.304 29.326-6.744-12.132a7 7 0 0 0-9.518-2.717zm42.087 86.662c-3.379-1.878-7.642-.662-9.52 2.717l-16.304 29.325-6.744-12.132a7 7 0 1 0-12.237 6.803l12.862 23.137a7 7 0 0 0 12.236 0l22.422-40.33a7 7 0 0 0-2.715-9.52zm38.559-54.799h60.229a7 7 0 1 0 0-14H209.34a7 7 0 1 0 0 14zm92.084-45.547H209.34a7 7 0 1 0 0 14h92.084a7 7 0 1 0 0-14z" fill="#fff"/></svg>